<?xml version="1.0" encoding="UTF-8" standalone="no"?>
<!DOCTYPE svg PUBLIC "-//W3C//DTD SVG 1.1//EN"
 "http://www.w3.org/Graphics/SVG/1.1/DTD/svg11.dtd">
<!-- Title: PellierDeployedTopology Pages: 1 -->
<svg width="1762pt" height="1080pt"
 viewBox="0.00 0.00 1762.00 1080.00" xmlns="http://www.w3.org/2000/svg" xmlns:xlink="http://www.w3.org/1999/xlink">
<g id="graph0" class="graph" transform="scale(1.13706 1.13706) rotate(0) translate(20.16 929.66)">
<title>PellierDeployedTopology</title>
<polygon fill="#f7f3ec" stroke="none" points="-20.16,20.16 -20.16,-929.66 1529.5,-929.66 1529.5,20.16 -20.16,20.16"/>
<text xml:space="preserve" text-anchor="middle" x="373.62" y="-884.6" font-family="Helvetica Neue" font-size="22.00" fill="#1f1410">PELLIER GOVERNED WORKSHOP</text>
<text xml:space="preserve" text-anchor="middle" x="373.62" y="-858.35" font-family="Helvetica Neue" font-size="22.00" fill="#1f1410">Deployed topology, numbered request path, four durable evidence writes</text>
<g id="clust1" class="cluster">
<title>cluster_evidence</title>
<polygon fill="#f1ece1" stroke="#cbc1ad" points="647.34,-12.6 647.34,-198.07 1501.34,-198.07 1501.34,-12.6 647.34,-12.6"/>
<text xml:space="preserve" text-anchor="middle" x="740.09" y="-184.57" font-family="Helvetica Neue" font-size="10.00" fill="#6b665d">DURABLE EVIDENCE WRITE POINTS</text>
</g>
<!-- surfaces&#45;&gt;cognito -->
<g id="edge1" class="edge">
<title>surfaces&#45;&gt;cognito</title>
<path fill="none" stroke="#9a3412" stroke-width="2.1" d="M364.45,-656.6C364.45,-656.6 444.39,-656.6 444.39,-656.6"/>
<polygon fill="#9a3412" stroke="#9a3412" stroke-width="2.1" points="444.39,-659.12 451.59,-656.6 444.39,-654.08 444.39,-659.12"/>
</g>
<!-- cognito&#45;&gt;app -->
<g id="edge2" class="edge">
<title>cognito&#45;&gt;app</title>
<path fill="none" stroke="#9a3412" stroke-width="2.1" d="M635.9,-656.6C635.9,-656.6 731.33,-656.6 731.33,-656.6"/>
<polygon fill="#9a3412" stroke="#9a3412" stroke-width="2.1" points="731.33,-659.12 738.53,-656.6 731.33,-654.08 731.33,-659.12"/>
</g>
<!-- app&#45;&gt;surfaces -->
<g id="edge8" class="edge">
<title>app&#45;&gt;surfaces</title>
<path fill="none" stroke="#3f6212" stroke-width="2.1" d="M835.34,-686.73C835.34,-696.37 835.34,-704.6 835.34,-704.6 835.34,-704.6 265.33,-704.6 265.33,-704.6 265.33,-704.6 265.33,-690.14 265.33,-690.14"/>
<polygon fill="#3f6212" stroke="#3f6212" stroke-width="2.1" points="267.86,-690.14 265.34,-682.94 262.82,-690.14 267.86,-690.14"/>
<text xml:space="preserve" text-anchor="middle" x="553.34" y="-799.68" font-family="Helvetica Neue" font-size="9.00" fill="#3f6212">08: answer + evidence IDs</text>
</g>
<!-- app&#45;&gt;runtime -->
<g id="edge3" class="edge">
<title>app&#45;&gt;runtime</title>
<path fill="none" stroke="#9a3412" stroke-width="2.1" d="M929.02,-656.6C929.02,-656.6 1042.13,-656.6 1042.13,-656.6"/>
<polygon fill="#9a3412" stroke="#9a3412" stroke-width="2.1" points="1042.13,-659.12 1049.33,-656.6 1042.13,-654.08 1042.13,-659.12"/>
</g>
<!-- app&#45;&gt;tools -->
<g id="edge9" class="edge">
<title>app&#45;&gt;tools</title>
<path fill="none" stroke="#6b665d" stroke-width="1.2" stroke-dasharray="5,2" d="M761.32,-626.56C761.32,-626.56 761.32,-404.5 761.32,-404.5"/>
<polygon fill="#6b665d" stroke="#6b665d" stroke-width="1.2" points="763.84,-404.5 761.32,-397.3 758.8,-404.5 763.84,-404.5"/>
<text xml:space="preserve" text-anchor="middle" x="766.59" y="-507.68" font-family="Helvetica Neue" font-size="9.00" fill="#6b665d">Labs 1–2: in&#45;process rail</text>
</g>
<!-- app&#45;&gt;human -->
<g id="edge11" class="edge">
<title>app&#45;&gt;human</title>
<path fill="none" stroke="#b45309" stroke-width="1.4" stroke-dasharray="5,2" d="M751.72,-626.51C751.72,-594.87 751.72,-549.6 751.72,-549.6 751.72,-549.6 180.58,-549.6 180.58,-549.6 180.58,-549.6 180.58,-398.23 180.58,-398.23"/>
<polygon fill="#b45309" stroke="#b45309" stroke-width="1.4" points="183.11,-398.23 180.59,-391.03 178.07,-398.23 183.11,-398.23"/>
<text xml:space="preserve" text-anchor="middle" x="406.08" y="-507.68" font-family="Helvetica Neue" font-size="9.00" fill="#b45309">prepare only</text>
</g>
<!-- runtime&#45;&gt;memory -->
<g id="edge10" class="edge">
<title>runtime&#45;&gt;memory</title>
<path fill="none" stroke="#6b21a8" stroke-width="1.5" d="M1160.77,-633.28C1160.77,-633.28 1160.77,-398.51 1160.77,-398.51"/>
<polygon fill="#6b21a8" stroke="#6b21a8" stroke-width="1.5" points="1163.29,-398.51 1160.77,-391.31 1158.25,-398.51 1163.29,-398.51"/>
<text xml:space="preserve" text-anchor="middle" x="1186.96" y="-507.68" font-family="Helvetica Neue" font-size="9.00" fill="#6b21a8">read / write session</text>
</g>
<!-- runtime&#45;&gt;gateway -->
<g id="edge4" class="edge">
<title>runtime&#45;&gt;gateway</title>
<path fill="none" stroke="#9a3412" stroke-width="2.1" d="M1066.84,-632.93C1066.84,-583.23 1066.84,-472.6 1066.84,-472.6 1066.84,-472.6 483.58,-472.6 483.58,-472.6 483.58,-472.6 483.58,-399.73 483.58,-399.73"/>
<polygon fill="#9a3412" stroke="#9a3412" stroke-width="2.1" points="486.11,-399.73 483.59,-392.53 481.07,-399.73 486.11,-399.73"/>
<text xml:space="preserve" text-anchor="middle" x="1052.84" y="-507.68" font-family="Helvetica Neue" font-size="9.00" fill="#5a2a0a">04: discover + invoke</text>
</g>
<!-- runtime&#45;&gt;e4 -->
<g id="edge16" class="edge">
<title>runtime&#45;&gt;e4</title>
<path fill="none" stroke="#1e40af" stroke-width="1.5" d="M1218.08,-656.6C1294.33,-656.6 1395.73,-656.6 1395.73,-656.6 1395.73,-656.6 1395.73,-106.29 1395.73,-106.29"/>
<polygon fill="#1e40af" stroke="#1e40af" stroke-width="1.5" points="1398.25,-106.29 1395.73,-99.09 1393.21,-106.29 1398.25,-106.29"/>
<text xml:space="preserve" text-anchor="middle" x="1400.21" y="-362.68" font-family="Helvetica Neue" font-size="9.00" fill="#1e40af">WRITE E4</text>
</g>
<!-- memory&#45;&gt;e2 -->
<g id="edge14" class="edge">
<title>memory&#45;&gt;e2</title>
<path fill="none" stroke="#6b21a8" stroke-width="1.5" d="M1184.77,-342.2C1184.77,-342.2 1184.77,-106.18 1184.77,-106.18"/>
<polygon fill="#6b21a8" stroke="#6b21a8" stroke-width="1.5" points="1187.29,-106.18 1184.77,-98.98 1182.25,-106.18 1187.29,-106.18"/>
<text xml:space="preserve" text-anchor="middle" x="1205.21" y="-216.68" font-family="Helvetica Neue" font-size="9.00" fill="#6b21a8">WRITE E2</text>
</g>
<!-- gateway&#45;&gt;tools -->
<g id="edge5" class="edge">
<title>gateway&#45;&gt;tools</title>
<path fill="none" stroke="#9a3412" stroke-width="2.1" d="M512.57,-365.6C512.57,-365.6 596.84,-365.6 596.84,-365.6"/>
<polygon fill="#9a3412" stroke="#9a3412" stroke-width="2.1" points="596.84,-368.12 604.04,-365.6 596.84,-363.08 596.84,-368.12"/>
</g>
<!-- gateway&#45;&gt;e3 -->
<g id="edge15" class="edge">
<title>gateway&#45;&gt;e3</title>
<path fill="none" stroke="#3f6212" stroke-width="1.5" d="M408.33,-342.2C408.33,-272.91 408.33,-73.6 408.33,-73.6 408.33,-73.6 653.88,-73.6 653.88,-73.6"/>
<polygon fill="#3f6212" stroke="#3f6212" stroke-width="1.5" points="653.88,-76.12 661.08,-73.6 653.88,-71.08 653.88,-76.12"/>
<text xml:space="preserve" text-anchor="middle" x="603.21" y="-216.68" font-family="Helvetica Neue" font-size="9.00" fill="#3f6212">WRITE E3</text>
</g>
<!-- tools&#45;&gt;aurora -->
<g id="edge6" class="edge">
<title>tools&#45;&gt;aurora</title>
<path fill="none" stroke="#9a3412" stroke-width="2.1" d="M771.48,-365.6C771.48,-365.6 863.12,-365.6 863.12,-365.6"/>
<polygon fill="#9a3412" stroke="#9a3412" stroke-width="2.1" points="863.12,-368.12 870.32,-365.6 863.12,-363.08 863.12,-368.12"/>
</g>
<!-- aurora&#45;&gt;app -->
<g id="edge7" class="edge">
<title>aurora&#45;&gt;app</title>
<path fill="none" stroke="#3f6212" stroke-width="2.1" d="M901.46,-395.92C901.46,-395.92 901.46,-616.41 901.46,-616.41"/>
<polygon fill="#3f6212" stroke="#3f6212" stroke-width="2.1" points="898.94,-616.41 901.46,-623.61 903.98,-616.41 898.94,-616.41"/>
<text xml:space="preserve" text-anchor="middle" x="900.84" y="-507.68" font-family="Helvetica Neue" font-size="9.00" fill="#3f6212">07: grounded result</text>
</g>
<!-- aurora&#45;&gt;e1 -->
<g id="edge13" class="edge">
<title>aurora&#45;&gt;e1</title>
<path fill="none" stroke="#3f6212" stroke-width="1.5" d="M958.34,-335.18C958.34,-335.18 958.34,-106.37 958.34,-106.37"/>
<polygon fill="#3f6212" stroke="#3f6212" stroke-width="1.5" points="960.86,-106.37 958.34,-99.17 955.82,-106.37 960.86,-106.37"/>
<text xml:space="preserve" text-anchor="middle" x="984.21" y="-216.68" font-family="Helvetica Neue" font-size="9.00" fill="#3f6212">WRITE E1</text>
</g>
<!-- human&#45;&gt;gateway -->
<g id="edge12" class="edge">
<title>human&#45;&gt;gateway</title>
<path fill="none" stroke="#b45309" stroke-width="1.4" stroke-dasharray="5,2" d="M194.88,-365.6C194.88,-365.6 294.54,-365.6 294.54,-365.6"/>
<polygon fill="#b45309" stroke="#b45309" stroke-width="1.4" points="294.54,-368.12 301.74,-365.6 294.54,-363.08 294.54,-368.12"/>
</g>
<!-- surfaces -->
<g id="node1" class="node">
<title>surfaces</title>
<polygon fill="#1f1410" stroke="#cbc1ad" stroke-width="1.15" points="364.17,-679.46 166.5,-679.46 166.5,-633.74 364.17,-633.74 364.17,-679.46"/>
<text xml:space="preserve" text-anchor="middle" x="265.33" y="-659.65" font-family="Helvetica Neue" font-size="11.00" fill="#fbf8f2">PELLIER SURFACES</text>
<text xml:space="preserve" text-anchor="middle" x="265.33" y="-646.15" font-family="Helvetica Neue" font-size="11.00" fill="#fbf8f2">Storefront, Operator, Observatory</text>
</g>
<!-- cognito -->
<g id="node2" class="node">
<title>cognito</title>
<polygon fill="#fbf8f2" stroke="#cbc1ad" stroke-width="1.15" points="635.55,-679.46 455.13,-679.46 455.13,-633.74 635.55,-633.74 635.55,-679.46"/>
<text xml:space="preserve" text-anchor="middle" x="545.34" y="-659.65" font-family="Helvetica Neue" font-size="11.00" fill="#1f1410">AMAZON COGNITO</text>
<text xml:space="preserve" text-anchor="middle" x="545.34" y="-646.15" font-family="Helvetica Neue" font-size="11.00" fill="#1f1410">Customer and operator identity</text>
</g>
<!-- app -->
<g id="node3" class="node">
<title>app</title>
<polygon fill="#fbf8f2" stroke="#cbc1ad" stroke-width="1.15" points="928.55,-686.21 742.12,-686.21 742.12,-626.99 928.55,-626.99 928.55,-686.21"/>
<text xml:space="preserve" text-anchor="middle" x="835.34" y="-666.4" font-family="Helvetica Neue" font-size="11.00" fill="#1f1410">FASTAPI + STRANDS</text>
<text xml:space="preserve" text-anchor="middle" x="835.34" y="-652.9" font-family="Helvetica Neue" font-size="11.00" fill="#1f1410">Dispatcher, bounded specialists</text>
<text xml:space="preserve" text-anchor="middle" x="835.34" y="-639.4" font-family="Helvetica Neue" font-size="11.00" fill="#1f1410">Operator GraphBuilder flow</text>
</g>
<!-- runtime -->
<g id="node4" class="node">
<title>runtime</title>
<polygon fill="#fbf8f2" stroke="#9a3412" stroke-width="1.8" points="1217.3,-679.46 1053.38,-679.46 1053.38,-633.74 1217.3,-633.74 1217.3,-679.46"/>
<text xml:space="preserve" text-anchor="middle" x="1135.34" y="-659.65" font-family="Helvetica Neue" font-size="11.00" fill="#1f1410">AGENTCORE RUNTIME</text>
<text xml:space="preserve" text-anchor="middle" x="1135.34" y="-646.15" font-family="Helvetica Neue" font-size="11.00" fill="#1f1410">Managed request execution</text>
</g>
<!-- memory -->
<g id="node5" class="node">
<title>memory</title>
<polygon fill="#fbf8f2" stroke="#6b21a8" stroke-width="1.15" points="1306.42,-388.46 1104.25,-388.46 1104.25,-342.74 1306.42,-342.74 1306.42,-388.46"/>
<text xml:space="preserve" text-anchor="middle" x="1205.34" y="-368.65" font-family="Helvetica Neue" font-size="11.00" fill="#4c1d69">AGENTCORE MEMORY</text>
<text xml:space="preserve" text-anchor="middle" x="1205.34" y="-355.15" font-family="Helvetica Neue" font-size="11.00" fill="#4c1d69">Session events, preference records</text>
</g>
<!-- gateway -->
<g id="node6" class="node">
<title>gateway</title>
<polygon fill="#fbf8f2" stroke="#9a3412" stroke-width="1.8" points="512.04,-388.46 304.62,-388.46 304.62,-342.74 512.04,-342.74 512.04,-388.46"/>
<text xml:space="preserve" text-anchor="middle" x="408.33" y="-368.65" font-family="Helvetica Neue" font-size="11.00" fill="#1f1410">AGENTCORE GATEWAY + POLICY</text>
<text xml:space="preserve" text-anchor="middle" x="408.33" y="-355.15" font-family="Helvetica Neue" font-size="11.00" fill="#1f1410">Typed MCP catalog, Cedar decision</text>
</g>
<!-- tools -->
<g id="node7" class="node">
<title>tools</title>
<polygon fill="#fbf8f2" stroke="#cbc1ad" stroke-width="1.15" points="770.92,-395.21 607.75,-395.21 607.75,-335.99 770.92,-335.99 770.92,-395.21"/>
<text xml:space="preserve" text-anchor="middle" x="689.34" y="-375.4" font-family="Helvetica Neue" font-size="11.00" fill="#1f1410">BOUNDED TOOL TARGETS</text>
<text xml:space="preserve" text-anchor="middle" x="689.34" y="-361.9" font-family="Helvetica Neue" font-size="11.00" fill="#1f1410">Search, pricing, inventory</text>
<text xml:space="preserve" text-anchor="middle" x="689.34" y="-348.4" font-family="Helvetica Neue" font-size="11.00" fill="#1f1410">recommendation, service</text>
</g>
<!-- aurora -->
<g id="node8" class="node">
<title>aurora</title>
<polygon fill="#fbf8f2" stroke="#3f6212" stroke-width="1.8" points="1080.3,-395.21 874.38,-395.21 874.38,-335.99 1080.3,-335.99 1080.3,-395.21"/>
<text xml:space="preserve" text-anchor="middle" x="977.34" y="-375.4" font-family="Helvetica Neue" font-size="11.00" fill="#1f1410">AURORA POSTGRESQL</text>
<text xml:space="preserve" text-anchor="middle" x="977.34" y="-361.9" font-family="Helvetica Neue" font-size="11.00" fill="#1f1410">pgvector, FTS, RRF, business rows</text>
<text xml:space="preserve" text-anchor="middle" x="977.34" y="-348.4" font-family="Helvetica Neue" font-size="11.00" fill="#1f1410">principal mapping, RLS</text>
</g>
<!-- human -->
<g id="node9" class="node">
<title>human</title>
<polygon fill="#fbf8f2" stroke="#b45309" stroke-width="1.15" points="194.67,-388.46 0,-388.46 0,-342.74 194.67,-342.74 194.67,-388.46"/>
<text xml:space="preserve" text-anchor="middle" x="97.33" y="-368.65" font-family="Helvetica Neue" font-size="11.00" fill="#7c2d12">HUMAN CHECKPOINT</text>
<text xml:space="preserve" text-anchor="middle" x="97.33" y="-355.15" font-family="Helvetica Neue" font-size="11.00" fill="#7c2d12">Review is separate from execution</text>
</g>
<!-- e1 -->
<g id="node10" class="node">
<title>e1</title>
<polygon fill="#fbf8f2" stroke="#3f6212" stroke-width="1.15" points="1041.8,-96.46 874.88,-96.46 874.88,-50.74 1041.8,-50.74 1041.8,-96.46"/>
<text xml:space="preserve" text-anchor="middle" x="958.34" y="-76.65" font-family="Helvetica Neue" font-size="11.00" fill="#3f6212">E1: RETRIEVAL + TOOL</text>
<text xml:space="preserve" text-anchor="middle" x="958.34" y="-63.15" font-family="Helvetica Neue" font-size="11.00" fill="#3f6212">retrieval_receipts, tool_audit</text>
</g>
<!-- e2 -->
<g id="node11" class="node">
<title>e2</title>
<polygon fill="#fbf8f2" stroke="#6b21a8" stroke-width="1.15" points="1265.3,-96.46 1065.38,-96.46 1065.38,-50.74 1265.3,-50.74 1265.3,-96.46"/>
<text xml:space="preserve" text-anchor="middle" x="1165.34" y="-76.65" font-family="Helvetica Neue" font-size="11.00" fill="#6b21a8">E2: MEMORY</text>
<text xml:space="preserve" text-anchor="middle" x="1165.34" y="-63.15" font-family="Helvetica Neue" font-size="11.00" fill="#6b21a8">session events, preference records</text>
</g>
<!-- e3 -->
<g id="node12" class="node">
<title>e3</title>
<polygon fill="#fbf8f2" stroke="#3f6212" stroke-width="1.15" points="850.92,-96.46 663.75,-96.46 663.75,-50.74 850.92,-50.74 850.92,-96.46"/>
<text xml:space="preserve" text-anchor="middle" x="757.34" y="-76.65" font-family="Helvetica Neue" font-size="11.00" fill="#3f6212">E3: GOVERNANCE</text>
<text xml:space="preserve" text-anchor="middle" x="757.34" y="-63.15" font-family="Helvetica Neue" font-size="11.00" fill="#3f6212">policy, execution, write receipts</text>
</g>
<!-- e4 -->
<g id="node13" class="node">
<title>e4</title>
<polygon fill="#fbf8f2" stroke="#1e40af" stroke-width="1.15" points="1485.05,-96.46 1289.62,-96.46 1289.62,-50.74 1485.05,-50.74 1485.05,-96.46"/>
<text xml:space="preserve" text-anchor="middle" x="1387.34" y="-76.65" font-family="Helvetica Neue" font-size="11.00" fill="#1e40af">E4: OBSERVABILITY</text>
<text xml:space="preserve" text-anchor="middle" x="1387.34" y="-63.15" font-family="Helvetica Neue" font-size="11.00" fill="#1e40af">OTEL spans, correlated identifiers</text>
</g>
</g>
</svg>
