<svg xmlns="http://www.w3.org/2000/svg" viewBox="0 0 64 64">
  <!-- Pellier p. mark, outlined from the storefront Fraunces 400 face. -->
  <rect width="64" height="64" rx="14" fill="#1f1410"/>
  <path fill="#fbf8f2" d="M19.688 11.827V15.586L19.954 16.148V49.772Q19.954 50.586 20.259 51.022Q20.565 51.457 21.176 51.58L23.281 51.907Q23.843 52.018 24.099 52.306Q24.355 52.593 24.355 52.975Q24.355 53.469 24.019 53.735Q23.682 54 22.96 54H11.077Q10.373 54 10.037 53.735Q9.701 53.469 9.701 52.975Q9.701 52.611 9.972 52.333Q10.244 52.056 10.756 51.926L12.225 51.599Q12.805 51.438 13.12 51.022Q13.435 50.605 13.435 49.79V16.167Q13.435 15.488 13.216 15.188Q12.997 14.889 12.454 14.827L10.336 14.741Q9.83 14.636 9.602 14.426Q9.373 14.216 9.373 13.858Q9.373 13.463 9.636 13.216Q9.898 12.969 10.589 12.728L15.466 10.883Q16.392 10.543 17.003 10.383Q17.614 10.222 18.102 10.222Q18.886 10.222 19.287 10.651Q19.688 11.08 19.688 11.827ZM18.429 19.167 17.448 17.562Q19.812 13.969 22.954 11.985Q26.096 10 29.775 10Q33.411 10 36.275 11.864Q39.139 13.728 40.769 16.994Q42.398 20.259 42.398 24.5Q42.398 29.383 40.485 32.926Q38.571 36.469 35.321 38.401Q32.071 40.333 28.065 40.333Q24.398 40.333 21.515 38.537Q18.633 36.741 16.886 33.401L18.411 31.864Q20.003 34.63 22.216 36.08Q24.429 37.531 26.966 37.531Q29.417 37.531 31.364 36.185Q33.312 34.839 34.441 32.102Q35.571 29.364 35.571 25.272Q35.571 21.321 34.5 18.691Q33.429 16.062 31.543 14.722Q29.657 13.383 27.238 13.383Q24.744 13.383 22.515 14.837Q20.287 16.29 18.429 19.167Z"/>
  <path fill="#da9562" d="M50.079 40.173Q48.818 40.173 47.787 39.528Q46.756 38.883 46.145 37.821Q45.534 36.759 45.534 35.535Q45.534 34.253 46.145 33.191Q46.756 32.129 47.787 31.525Q48.818 30.92 50.079 30.92Q51.378 30.92 52.401 31.525Q53.423 32.129 54.025 33.191Q54.627 34.253 54.627 35.535Q54.627 36.759 54.025 37.821Q53.423 38.883 52.401 39.528Q51.378 40.173 50.079 40.173Z"/>
</svg>
